<svg width="282" height="281" viewBox="0 0 282 281" fill="none" xmlns="http://www.w3.org/2000/svg">
<rect x="2" y="-2" width="253" height="251" rx="13" transform="matrix(1 0 0 -1 0 276.595)" fill="#FF9054" stroke="#2B2E3C" stroke-width="4"/>
<rect x="24" y="2" width="256" height="256" rx="13" fill="white" stroke="#2B2E3C" stroke-width="4"/>
<path d="M88.5625 129.03C88.5625 116.443 90.8102 105.504 95.3056 96.2136C99.8011 86.7732 106.095 79.5056 114.186 74.4108C122.428 69.316 132.018 66.7686 142.957 66.7686C152.248 66.7686 160.639 68.8664 168.132 73.0622C175.774 77.2579 181.917 83.8512 186.563 92.842C191.358 101.833 194.055 113.071 194.655 126.558L194.879 134.874H108.118C109.017 147.162 112.463 156.752 118.457 163.645C124.601 170.388 132.768 173.76 142.957 173.76C149.55 173.76 155.544 171.961 160.939 168.365C166.333 164.769 170.379 159.824 173.076 153.53L192.856 154.879C189.41 165.968 183.116 174.809 173.976 181.402C164.835 187.995 154.495 191.292 142.957 191.292C132.018 191.292 122.428 188.744 114.186 183.65C106.095 178.555 99.8011 171.362 95.3056 162.072C90.8102 152.631 88.5625 141.617 88.5625 129.03ZM174.65 118.466C173.002 106.628 169.33 98.0118 163.636 92.6172C157.942 87.0729 151.049 84.3007 142.957 84.3007C133.367 84.3007 125.65 87.2977 119.806 93.2916C113.962 99.1356 110.215 107.527 108.567 118.466H174.65Z" fill="#2B2E3C"/>
<circle cx="232.029" cy="183.936" r="15.9317" fill="#FF9054" stroke="#2B2E3C" stroke-width="4"/>
</svg>
